# xmcd
#
# Track frame offsets: 
#        150
#        13529
#        28376
#        40496
#        55909
#        66017
#        77847
#        88122
#        103076
#        115548
#        129396
#
# Disc length: 1863 seconds
#
# Revision: 0
# Processed by: cddbd v1.5.2PL0 Copyright (c) Steve Scherf et al.
# Submitted via: ExactAudioCopy v0.99pb4
#
DISCID=8e07450b
DTITLE=Shane Nicholson - Familiar Ghosts
DYEAR=2008
DGENRE=Country
TTITLE0=Easy Now
TTITLE1=Summer Dress
TTITLE2=Where The Water Goes
TTITLE3=Long Time Coming
TTITLE4=Who's At Your Window?
TTITLE5=You And Your Enemy
TTITLE6=Barcelona
TTITLE7=Such A Shame
TTITLE8=Short Fuse (Part 4)
TTITLE9=God and Elvis
TTITLE10=Thankyou And Goodnight
EXTD=
EXTT0=
EXTT1=
EXTT2=
EXTT3=
EXTT4=
EXTT5=
EXTT6=
EXTT7=
EXTT8=
EXTT9=
EXTT10=
PLAYORDER=
